<svg width="256" height="62" viewBox="0 0 256 62" fill="none" xmlns="http://www.w3.org/2000/svg">
<path d="M26.4106 20.7886V32.2415L23.6888 31.7043V20.7886C23.6888 20.7656 23.6888 20.7427 23.6888 20.7197C23.6888 20.6968 23.6865 20.6738 23.6819 20.6509C23.6819 20.6279 23.6819 20.6049 23.6819 20.582C23.6773 20.559 23.675 20.5361 23.675 20.5131C23.6703 20.4902 23.668 20.4672 23.668 20.4442C23.6634 20.4259 23.6588 20.4052 23.6542 20.3823C23.6496 20.3593 23.6473 20.3364 23.6473 20.3134C23.6426 20.2904 23.638 20.2675 23.6334 20.2445C23.6288 20.2216 23.6242 20.2009 23.6196 20.1825C23.6149 20.1596 23.608 20.1366 23.5988 20.1137C23.5988 20.093 23.5918 20.0724 23.5849 20.0517C23.5803 20.0287 23.5734 20.0081 23.5641 19.9897C23.5595 19.9668 23.5526 19.9438 23.5434 19.9208C23.5388 19.9025 23.5318 19.8818 23.5226 19.8589C23.5134 19.8405 23.5041 19.8198 23.4949 19.7969C23.4903 19.7785 23.4833 19.7579 23.4741 19.7349C23.4649 19.7165 23.4556 19.6982 23.4464 19.6798C23.4372 19.6568 23.4279 19.6362 23.4187 19.6178C23.4095 19.5995 23.4002 19.5811 23.391 19.5627C23.3818 19.5398 23.3702 19.5191 23.3564 19.5007C23.3471 19.4824 23.3379 19.464 23.3287 19.4456C23.3148 19.4273 23.3033 19.4089 23.294 19.3905C23.2802 19.3722 23.2687 19.3538 23.2594 19.3355C23.2456 19.3171 23.234 19.2987 23.2248 19.2804C23.2109 19.262 23.1971 19.2436 23.1832 19.2253C23.174 19.2069 23.1625 19.1885 23.1486 19.1702C23.1348 19.1564 23.1209 19.1403 23.1071 19.122C23.0932 19.1036 23.0793 19.0875 23.0655 19.0738C23.0516 19.0554 23.0378 19.037 23.0239 19.0187C23.0101 19.0049 22.9962 18.9888 22.9824 18.9704C22.9639 18.9567 22.9478 18.9406 22.9339 18.9222C22.9201 18.9085 22.9062 18.8924 22.8924 18.874C22.8739 18.8603 22.8577 18.8465 22.8439 18.8327C22.83 18.8189 22.8139 18.8052 22.7954 18.7914C22.7815 18.773 22.7654 18.757 22.7469 18.7432C22.7284 18.7294 22.7123 18.7156 22.6984 18.7019C22.68 18.6881 22.6615 18.6743 22.643 18.6605C22.6292 18.6468 22.613 18.633 22.5946 18.6192C22.5761 18.61 22.5576 18.5986 22.5391 18.5848C22.5207 18.571 22.5045 18.5595 22.4907 18.5503C22.4722 18.5366 22.4537 18.5228 22.4353 18.509C22.4168 18.4998 22.3983 18.4884 22.3799 18.4746C22.3614 18.4654 22.3429 18.4539 22.3245 18.4402C22.3014 18.431 22.2806 18.4218 22.2621 18.4126C22.2437 18.4034 22.2252 18.392 22.2067 18.3782C22.1882 18.369 22.1675 18.3598 22.1444 18.3506C22.1259 18.3414 22.1074 18.3323 22.089 18.3231C22.0659 18.3139 22.0451 18.3047 22.0266 18.2955C22.0036 18.2864 21.9828 18.2795 21.9643 18.2749C21.9458 18.2657 21.9251 18.2565 21.902 18.2473C21.8789 18.2427 21.8581 18.2358 21.8397 18.2267C21.8166 18.2221 21.7958 18.2152 21.7773 18.206C21.7542 18.2014 21.7312 18.1945 21.7081 18.1853C21.6896 18.1808 21.6688 18.1762 21.6457 18.1716C21.6226 18.167 21.6019 18.1624 21.5834 18.1578C21.5603 18.1486 21.5372 18.1417 21.5141 18.1371C21.4911 18.1325 21.468 18.1302 21.4449 18.1302C21.4264 18.1257 21.4056 18.1211 21.3826 18.1165C21.3595 18.1119 21.3364 18.1096 21.3133 18.1096C21.2902 18.105 21.2671 18.1004 21.244 18.0958C21.221 18.0958 21.1979 18.0958 21.1748 18.0958C21.1517 18.0912 21.1286 18.0889 21.1055 18.0889C21.0824 18.0889 21.0594 18.0889 21.0363 18.0889C21.0132 18.0843 20.9901 18.082 20.967 18.082C20.9439 18.082 20.9208 18.0843 20.8978 18.0889C20.8747 18.0889 20.8516 18.0889 20.8285 18.0889C20.8054 18.0889 20.7823 18.0912 20.7592 18.0958C20.7362 18.0958 20.7131 18.0958 20.69 18.0958C20.6669 18.1004 20.6438 18.105 20.6207 18.1096C20.5976 18.1096 20.5746 18.1119 20.5515 18.1165C20.5284 18.1211 20.5053 18.1257 20.4822 18.1302C20.4591 18.1302 20.4384 18.1325 20.4199 18.1371C20.3968 18.1417 20.3737 18.1486 20.3506 18.1578C20.3275 18.1624 20.3068 18.167 20.2883 18.1716C20.2652 18.1762 20.2421 18.1808 20.219 18.1853C20.2006 18.1945 20.1798 18.2014 20.1567 18.206C20.1336 18.2152 20.1129 18.2221 20.0944 18.2267C20.0713 18.2358 20.0505 18.2427 20.0321 18.2473C20.009 18.2565 19.9882 18.2657 19.9697 18.2749C19.9466 18.2795 19.9259 18.2864 19.9074 18.2955C19.8843 18.3047 19.8635 18.3139 19.8451 18.3231C19.8266 18.3323 19.8081 18.3414 19.7897 18.3506C19.7666 18.3598 19.7458 18.369 19.7273 18.3782C19.7089 18.392 19.6881 18.4034 19.665 18.4126C19.6465 18.4218 19.6281 18.431 19.6096 18.4402C19.5911 18.4539 19.5726 18.4654 19.5542 18.4746C19.5357 18.4884 19.5172 18.4998 19.4988 18.509C19.4803 18.5228 19.4618 18.5366 19.4434 18.5503C19.4249 18.5595 19.4064 18.571 19.388 18.5848C19.3741 18.5986 19.358 18.61 19.3395 18.6192C19.321 18.633 19.3025 18.6468 19.2841 18.6605C19.2656 18.6743 19.2495 18.6881 19.2356 18.7019C19.2171 18.7156 19.201 18.7294 19.1871 18.7432C19.1687 18.757 19.1525 18.773 19.1386 18.7914C19.1202 18.8052 19.104 18.8189 19.0902 18.8327C19.0717 18.8465 19.0555 18.8603 19.0417 18.874C19.0278 18.8924 19.0117 18.9085 18.9932 18.9222C18.9793 18.9406 18.9655 18.9567 18.9516 18.9704C18.9378 18.9888 18.9239 19.0049 18.9101 19.0187C18.8962 19.037 18.8824 19.0554 18.8685 19.0738C18.8547 19.0875 18.8408 19.1036 18.827 19.122C18.8131 19.1403 18.7993 19.1564 18.7854 19.1702C18.7716 19.1885 18.7577 19.2069 18.7439 19.2253C18.7346 19.2436 18.7231 19.262 18.7092 19.2804C18.6954 19.2987 18.6839 19.3171 18.6746 19.3355C18.6608 19.3538 18.6492 19.3722 18.64 19.3905C18.6261 19.4089 18.6146 19.4273 18.6054 19.4456C18.5961 19.464 18.5846 19.4824 18.5707 19.5007C18.5615 19.5191 18.5523 19.5398 18.543 19.5627C18.5338 19.5811 18.5246 19.5995 18.5153 19.6178C18.5015 19.6362 18.4922 19.6568 18.4876 19.6798C18.4784 19.6982 18.4692 19.7165 18.4599 19.7349C18.4507 19.7579 18.4415 19.7785 18.4322 19.7969C18.423 19.8198 18.4161 19.8405 18.4114 19.8589C18.4022 19.8818 18.393 19.9025 18.3837 19.9208C18.3791 19.9438 18.3745 19.9668 18.3699 19.9897C18.3607 20.0081 18.3537 20.0287 18.3491 20.0517C18.3399 20.0746 18.333 20.0953 18.3283 20.1137C18.3237 20.1366 18.3191 20.1596 18.3145 20.1825C18.3099 20.2009 18.3052 20.2216 18.3006 20.2445C18.296 20.2675 18.2914 20.2904 18.2868 20.3134C18.2822 20.3364 18.2775 20.3593 18.2729 20.3823L18.266 20.4442C18.2614 20.4672 18.2591 20.4902 18.2591 20.5131C18.2545 20.5361 18.2522 20.559 18.2522 20.582C18.2522 20.6049 18.2498 20.6279 18.2452 20.6509C18.2452 20.6738 18.2452 20.6968 18.2452 20.7197C18.2452 20.7427 18.2452 20.7656 18.2452 20.7886V30.63L15.5234 30.0928V20.7886C15.5234 19.604 15.9044 18.509 16.5554 17.6206C16.6731 17.4553 16.8047 17.2969 16.9432 17.1454C17.9336 16.0642 19.3741 15.3755 20.967 15.3755C22.7815 15.3755 24.3883 16.2639 25.3787 17.6206C25.6765 18.0269 25.9119 18.4746 26.092 18.9567C26.2929 19.5283 26.4106 20.1481 26.4106 20.7886Z" fill="white"/>
<path d="M37.2982 20.7886V34.3971L34.9227 33.9288L34.5764 33.86V20.706V20.6647V20.6164V20.5751V20.5338L34.5695 20.4856V20.403V20.3616V20.3134L34.5626 20.2721V20.2308V20.1895V20.1413L34.5556 20.0999V20.0586V20.0173L34.5487 19.9691V19.9278L34.5418 19.8864V19.8451L34.5349 19.7556V19.7143L34.5279 19.6729V19.6316L34.521 19.5903V19.549L34.5141 19.5008V19.4594L34.5002 19.3768L34.4933 19.2942L34.4864 19.2528V19.2046L34.4795 19.1633L34.4725 19.122L34.4587 19.0394V18.998L34.4518 18.9567L34.4448 18.9154L34.4379 18.8741L34.431 18.8327L34.424 18.7914V18.7501L34.4171 18.7019L34.4102 18.6606L34.4033 18.6192L34.3963 18.5779L34.3894 18.5366L34.3825 18.4953L34.3756 18.454L34.3686 18.4126L34.3617 18.3713L34.3479 18.33L34.3409 18.2887L34.334 18.2474L34.3271 18.206L34.3202 18.1647L34.3132 18.1234L34.3063 18.0821C34.274 17.926 34.2371 17.7722 34.1955 17.6206C32.7619 11.6773 27.3806 7.25587 20.9675 7.25587C15.3507 7.25587 10.5305 10.6442 8.45277 15.4719C8.15496 16.1606 7.91256 16.8769 7.7325 17.6206C7.69556 17.7722 7.66093 17.926 7.62861 18.0821L7.62168 18.1234L7.61476 18.1647L7.60783 18.206L7.60091 18.2474L7.58706 18.2887L7.58013 18.33L7.57321 18.3713L7.56628 18.4126L7.55935 18.454L7.55243 18.4953L7.5455 18.5366L7.53858 18.5779L7.53165 18.6192L7.52473 18.6606L7.5178 18.7019L7.51087 18.7501L7.50395 18.7914L7.49702 18.8327L7.4901 18.8741V18.9154L7.47625 18.998L7.46932 19.0394L7.46239 19.0807V19.122L7.45547 19.1633L7.44854 19.2046L7.44162 19.2528V19.2942L7.42777 19.3768V19.4181L7.42084 19.4594V19.5008L7.41391 19.549V19.5903L7.40699 19.6316L7.40006 19.6729V19.7143V19.7556L7.39314 19.8038V19.8451L7.38621 19.8864V19.9278L7.37929 19.9691V20.0173V20.0586L7.37236 20.0999V20.1413V20.1895L7.36543 20.2308V20.2721V20.3134V20.3616L7.35851 20.4856V20.5338V20.5751V20.6164V20.6647V20.706V28.4744L4.63672 27.9372V20.7886C4.63672 19.8727 4.7129 18.9636 4.85834 18.0821C4.88604 17.9306 4.91605 17.7768 4.94837 17.6206C6.43047 10.169 13.0376 4.54932 20.9675 4.54932C28.8904 4.54932 35.5045 10.169 36.9865 17.6206C37.0189 17.7768 37.0466 17.9306 37.0697 18.0821C37.222 18.9636 37.2982 19.8727 37.2982 20.7886Z" fill="white"/>
<path d="M31.8544 20.706V33.3228L29.1326 32.7856V20.7886C29.1326 20.3685 29.098 19.9484 29.0357 19.5421C28.9595 19.0393 28.8348 18.5504 28.6686 18.0821C28.6132 17.926 28.5532 17.7721 28.4885 17.6206C27.2419 14.7144 24.34 12.669 20.9672 12.669C18.0169 12.669 15.4267 14.2323 13.9931 16.5669C13.7853 16.9021 13.6029 17.2533 13.446 17.6206C13.3813 17.7721 13.3213 17.926 13.2659 18.0821C12.9612 18.9291 12.8019 19.8451 12.8019 20.7886V29.5556L10.0801 29.0116V20.706V20.6578V20.6164V20.5751V20.5269V20.4856L10.087 20.4443V20.3961V20.3547V20.3134L10.0939 20.2721V20.2239V20.1826L10.1009 20.1412V20.0999V20.0517L10.1078 19.9691L10.1147 19.9209V19.8795L10.1216 19.8382V19.7969L10.1286 19.7556V19.7074L10.1355 19.666L10.1424 19.6247V19.5834L10.1493 19.5421L10.1563 19.4939L10.1632 19.4525V19.4112L10.1701 19.3699L10.177 19.3286L10.184 19.2873L10.1909 19.2459L10.1978 19.2046L10.2047 19.1564V19.1151L10.2117 19.0738L10.2186 19.0324L10.2255 18.9911L10.2324 18.9498L10.2463 18.9085L10.2532 18.8672L10.2601 18.8258L10.2671 18.7845L10.274 18.7432L10.2809 18.7019L10.2878 18.6606L10.3017 18.6192L10.3086 18.5779L10.3156 18.5366L10.3225 18.4953L10.3363 18.4539L10.3433 18.4126L10.3502 18.3713L10.364 18.33L10.371 18.2887L10.3848 18.2473L10.3917 18.206L10.3987 18.1647L10.4125 18.1234L10.4194 18.0821C10.461 17.926 10.5049 17.7721 10.551 17.6206C10.7242 17.0628 10.9389 16.5256 11.1951 16.0091C12.9681 12.4279 16.6802 9.9624 20.9672 9.9624C25.8706 9.9624 30.0122 13.1924 31.3765 17.6206C31.4227 17.7721 31.4666 17.926 31.5081 18.0821L31.522 18.1234L31.5289 18.1647L31.5427 18.206L31.5497 18.2473L31.5635 18.2887L31.5704 18.33L31.5774 18.3713L31.5912 18.4126L31.5981 18.4539L31.6051 18.4953L31.6189 18.5366L31.6259 18.5779L31.6328 18.6192L31.6397 18.6606L31.6536 18.7019L31.6605 18.7432L31.6674 18.7845L31.6743 18.8258L31.6813 18.8672L31.6951 18.9498L31.702 18.9911L31.709 19.0324L31.7159 19.0738L31.7228 19.1151L31.7297 19.1564L31.7367 19.2046L31.7436 19.2459L31.7505 19.2873L31.7574 19.3286V19.3699L31.7644 19.4112L31.7713 19.4525L31.7782 19.4939V19.5421L31.7851 19.5834L31.7921 19.6247L31.799 19.666V19.7074L31.8059 19.7556V19.7969L31.8128 19.8795L31.8198 19.9209V19.9691L31.8267 20.0517L31.8336 20.093V20.0999V20.1412V20.1826L31.8405 20.2239V20.2721V20.3134L31.8475 20.3547V20.3961V20.4443V20.4856V20.5269L31.8544 20.5751V20.6164V20.6578V20.706Z" fill="white"/>
<path d="M34.9227 33.7431L34.5764 33.6742L31.8546 33.137L29.1328 32.5998L26.411 32.0627L23.6893 31.5255V41.36C23.6893 41.3829 23.6893 41.4059 23.6893 41.4288C23.6893 41.4518 23.6869 41.4748 23.6823 41.4977C23.6823 41.5207 23.6823 41.5436 23.6823 41.5666C23.6777 41.5895 23.6754 41.6125 23.6754 41.6354C23.6708 41.6584 23.6685 41.6814 23.6685 41.7043L23.6546 41.7732C23.65 41.7961 23.6477 41.8191 23.6477 41.8421C23.6431 41.865 23.6385 41.8857 23.6338 41.904C23.6292 41.927 23.6246 41.95 23.62 41.9729C23.6154 41.9959 23.6085 42.0165 23.5992 42.0349C23.5992 42.0555 23.5923 42.0831 23.5854 42.1038C23.5807 42.1221 23.5738 42.1428 23.5646 42.1657C23.56 42.1887 23.553 42.2094 23.5438 42.2277C23.5392 42.2507 23.5323 42.2713 23.523 42.2897C23.5138 42.3127 23.5069 42.3333 23.5023 42.3517C23.493 42.3746 23.4838 42.3953 23.4746 42.4137C23.4653 42.4366 23.4561 42.4573 23.4469 42.4757C23.4376 42.494 23.4284 42.5147 23.4192 42.5376C23.4099 42.556 23.4007 42.5744 23.3914 42.5927C23.3822 42.6111 23.3707 42.6318 23.3568 42.6547C23.3476 42.6731 23.3384 42.6914 23.3291 42.7098C23.3153 42.7282 23.3037 42.7465 23.2945 42.7649C23.2806 42.7833 23.2691 42.8016 23.2599 42.82C23.246 42.8384 23.2345 42.8567 23.2252 42.8751C23.2114 42.8935 23.1975 42.9118 23.1837 42.9302C23.1744 42.9486 23.1629 42.9646 23.149 42.9784C23.1352 42.9968 23.1213 43.0151 23.1075 43.0335C23.0936 43.0473 23.0798 43.0633 23.0659 43.0817C23.0521 43.1001 23.0382 43.1161 23.0244 43.1299C23.0105 43.1483 22.9967 43.1643 22.9828 43.1781C22.969 43.1965 22.9528 43.2126 22.9344 43.2263C22.9205 43.2447 22.9067 43.2608 22.8928 43.2745C22.8743 43.2883 22.8582 43.3044 22.8443 43.3227C22.8305 43.3365 22.8143 43.3503 22.7958 43.3641C22.782 43.3778 22.7658 43.3916 22.7474 43.4054C22.7289 43.4192 22.7127 43.4329 22.6989 43.4467C22.6804 43.4605 22.6643 43.4743 22.6504 43.488C22.6319 43.5018 22.6135 43.5156 22.595 43.5293C22.5765 43.5431 22.5581 43.5569 22.5396 43.5707C22.5257 43.5799 22.5096 43.5913 22.4911 43.6051C22.4726 43.6189 22.4542 43.6304 22.4357 43.6395C22.4172 43.6533 22.3988 43.6648 22.3803 43.674C22.3618 43.6877 22.3434 43.6992 22.3249 43.7084C22.3018 43.7176 22.281 43.7291 22.2626 43.7428C22.2441 43.752 22.2256 43.7612 22.2072 43.7704C22.1887 43.7796 22.1679 43.7888 22.1448 43.7979C22.1264 43.8071 22.1079 43.8186 22.0894 43.8324C22.0663 43.837 22.0456 43.8438 22.0271 43.853C22.004 43.8622 21.9832 43.8714 21.9648 43.8806C21.9463 43.8898 21.9255 43.8966 21.9024 43.9012C21.8793 43.9104 21.8586 43.9196 21.8401 43.9288C21.817 43.9334 21.7962 43.9403 21.7778 43.9494C21.7547 43.954 21.7316 43.9586 21.7085 43.9632C21.69 43.9724 21.6693 43.9793 21.6462 43.9839C21.6231 43.9885 21.6023 43.9931 21.5838 43.9977C21.5608 44.0022 21.5377 44.0068 21.5146 44.0114C21.4915 44.016 21.4684 44.0206 21.4453 44.0252C21.4269 44.0298 21.4061 44.0344 21.383 44.039C21.3599 44.039 21.3368 44.0413 21.3137 44.0459C21.2907 44.0505 21.2676 44.0528 21.2445 44.0528C21.2214 44.0573 21.1983 44.0596 21.1752 44.0596C21.1521 44.0596 21.1291 44.0619 21.106 44.0665C21.0829 44.0665 21.0598 44.0665 21.0367 44.0665C21.0136 44.0665 20.9905 44.0665 20.9675 44.0665C20.9444 44.0665 20.9213 44.0665 20.8982 44.0665C20.8751 44.0665 20.852 44.0665 20.8289 44.0665C20.8059 44.0619 20.7828 44.0596 20.7597 44.0596C20.7366 44.0596 20.7135 44.0573 20.6904 44.0528C20.6673 44.0528 20.6443 44.0505 20.6212 44.0459C20.5981 44.0413 20.575 44.039 20.5519 44.039C20.5288 44.0344 20.5057 44.0298 20.4827 44.0252C20.4596 44.0206 20.4388 44.016 20.4203 44.0114C20.3972 44.0068 20.3742 44.0022 20.3511 43.9977C20.328 43.9931 20.3072 43.9885 20.2887 43.9839C20.2657 43.9793 20.2426 43.9724 20.2195 43.9632C20.201 43.9586 20.1802 43.954 20.1572 43.9494C20.1341 43.9403 20.1133 43.9334 20.0948 43.9288C20.0717 43.9196 20.051 43.9104 20.0325 43.9012C20.0094 43.8966 19.9886 43.8898 19.9702 43.8806C19.9471 43.8714 19.9263 43.8622 19.9078 43.853C19.8847 43.8438 19.864 43.837 19.8455 43.8324C19.827 43.8186 19.8086 43.8071 19.7901 43.7979C19.767 43.7888 19.7462 43.7796 19.7278 43.7704C19.7093 43.7612 19.6885 43.752 19.6654 43.7428C19.647 43.7291 19.6285 43.7176 19.61 43.7084C19.5916 43.6992 19.5731 43.6877 19.5546 43.674C19.5362 43.6648 19.5177 43.6533 19.4992 43.6395C19.4807 43.6304 19.4623 43.6189 19.4438 43.6051C19.4253 43.5913 19.4069 43.5799 19.3884 43.5707C19.3746 43.5569 19.3584 43.5431 19.3399 43.5293C19.3215 43.5156 19.303 43.5018 19.2845 43.488C19.2661 43.4743 19.2499 43.4605 19.236 43.4467C19.2176 43.4329 19.2014 43.4192 19.1876 43.4054C19.1691 43.3916 19.1529 43.3778 19.1391 43.3641C19.1206 43.3503 19.1045 43.3365 19.0906 43.3227C19.0721 43.3044 19.056 43.2883 19.0421 43.2745C19.0283 43.2608 19.0121 43.2447 18.9936 43.2263C18.9798 43.2126 18.9659 43.1965 18.9521 43.1781C18.9382 43.1643 18.9244 43.1483 18.9105 43.1299C18.8967 43.1161 18.8828 43.1001 18.869 43.0817C18.8551 43.0633 18.8413 43.0473 18.8274 43.0335C18.8136 43.0151 18.7997 42.9968 18.7859 42.9784C18.772 42.9646 18.7582 42.9486 18.7443 42.9302C18.7351 42.9118 18.7235 42.8935 18.7097 42.8751C18.6958 42.8567 18.6843 42.8384 18.6751 42.82C18.6612 42.8016 18.6497 42.7833 18.6404 42.7649C18.6266 42.7465 18.615 42.7282 18.6058 42.7098C18.5966 42.6914 18.585 42.6731 18.5712 42.6547C18.5619 42.6318 18.5527 42.6111 18.5435 42.5927C18.5342 42.5744 18.525 42.556 18.5158 42.5376C18.5019 42.5147 18.4927 42.494 18.4881 42.4757C18.4788 42.4573 18.4696 42.4366 18.4604 42.4137C18.4511 42.3953 18.4419 42.3746 18.4327 42.3517C18.4234 42.3333 18.4165 42.3127 18.4119 42.2897C18.4027 42.2713 18.3934 42.2507 18.3842 42.2277C18.3796 42.2094 18.3749 42.1887 18.3703 42.1657C18.3611 42.1428 18.3542 42.1221 18.3496 42.1038C18.3403 42.0808 18.3334 42.0578 18.3288 42.0349C18.3242 42.0165 18.3195 41.9959 18.3149 41.9729C18.3103 41.95 18.3057 41.927 18.3011 41.904C18.2965 41.8857 18.2918 41.865 18.2872 41.8421C18.2826 41.8191 18.278 41.7961 18.2734 41.7732C18.2734 41.7502 18.2711 41.7273 18.2664 41.7043C18.2618 41.6814 18.2595 41.6584 18.2595 41.6354C18.2549 41.6125 18.2526 41.5895 18.2526 41.5666C18.2526 41.5436 18.2503 41.5207 18.2457 41.4977C18.2457 41.4748 18.2457 41.4518 18.2457 41.4288C18.2457 41.4059 18.2457 41.3829 18.2457 41.36V30.4442L15.5239 29.9071L12.8021 29.3699L10.0803 28.8327L7.35851 28.2886L4.63672 27.7515V41.36C4.63672 42.2828 4.7129 43.185 4.85834 44.0665C6.16037 51.7454 12.8783 57.5993 20.9675 57.5993C29.0566 57.5993 35.7746 51.7454 37.0697 44.0665C37.222 43.185 37.2982 42.2828 37.2982 41.36V34.2114L34.9227 33.7431Z" fill="#2B8F1C"/>
<path d="M54.5576 41.25V23.21H57.1759V30.9898H66.1959V23.21H68.8267V41.25H66.1959V33.4577H57.1759V41.25H54.5576ZM78.3469 41.6258C77.0022 41.6258 75.8204 41.3335 74.8015 40.7489C73.7909 40.1559 73.0017 39.3333 72.4338 38.2809C71.8742 37.2202 71.5944 35.9925 71.5944 34.5978C71.5944 33.1195 71.87 31.8375 72.4212 30.7517C72.9808 29.666 73.7575 28.8266 74.7514 28.2336C75.7453 27.6407 76.902 27.3442 78.2216 27.3442C79.5996 27.3442 80.7731 27.6657 81.7419 28.3088C82.7107 28.9435 83.4331 29.8497 83.9092 31.0273C84.3936 32.2049 84.5857 33.6039 84.4855 35.2241H81.8672V34.272C81.8505 32.7019 81.5498 31.541 80.9652 30.7893C80.3889 30.0376 79.5078 29.6618 78.3218 29.6618C77.0106 29.6618 76.0251 30.0752 75.3653 30.9021C74.7055 31.7289 74.3756 32.9232 74.3756 34.485C74.3756 35.9716 74.7055 37.1242 75.3653 37.9427C76.0251 38.7528 76.9772 39.1579 78.2216 39.1579C79.0401 39.1579 79.7458 38.9741 80.3388 38.6066C80.9401 38.2308 81.4078 37.6963 81.7419 37.0031L84.3101 37.8174C83.7839 39.0284 82.9863 39.968 81.9173 40.6361C80.8482 41.2959 79.6581 41.6258 78.3469 41.6258ZM73.5237 35.2241V33.1821H83.1826V35.2241H73.5237ZM90.8725 41.6258C89.8703 41.6258 89.0309 41.4421 88.3544 41.0746C87.6779 40.6988 87.1643 40.206 86.8135 39.5963C86.4711 38.9783 86.2999 38.3018 86.2999 37.5668C86.2999 36.882 86.421 36.2806 86.6632 35.7628C86.9054 35.245 87.2645 34.8065 87.7405 34.4474C88.2166 34.0799 88.8012 33.7834 89.4944 33.5579C90.0958 33.3826 90.7764 33.228 91.5365 33.0944C92.2965 32.9608 93.0941 32.8355 93.9293 32.7186C94.7728 32.6017 95.608 32.4847 96.4348 32.3678L95.4827 32.894C95.4994 31.8333 95.2739 31.0482 94.8062 30.5388C94.3469 30.0209 93.5534 29.762 92.4259 29.762C91.716 29.762 91.0646 29.9291 90.4716 30.2631C89.8786 30.5889 89.4652 31.1317 89.2314 31.8918L86.7884 31.1401C87.1225 29.9792 87.7573 29.0563 88.6927 28.3714C89.6364 27.6866 90.8892 27.3442 92.451 27.3442C93.662 27.3442 94.7143 27.553 95.608 27.9706C96.51 28.3798 97.1698 29.0312 97.5874 29.9249C97.8045 30.3675 97.9382 30.8352 97.9883 31.328C98.0384 31.8208 98.0634 32.3511 98.0634 32.919V41.25H95.7458V38.1556L96.1968 38.5565C95.6372 39.5922 94.9231 40.3647 94.0545 40.8742C93.1943 41.3753 92.1336 41.6258 90.8725 41.6258ZM91.336 39.4836C92.0793 39.4836 92.7183 39.3541 93.2528 39.0952C93.7873 38.828 94.2174 38.4897 94.5431 38.0805C94.8689 37.6712 95.0818 37.2453 95.182 36.8026C95.324 36.4018 95.4034 35.9508 95.4201 35.4496C95.4451 34.9485 95.4577 34.5476 95.4577 34.247L96.3095 34.5602C95.4827 34.6854 94.731 34.7982 94.0545 34.8984C93.378 34.9986 92.7642 35.0989 92.213 35.1991C91.6701 35.291 91.1857 35.4037 90.7597 35.5373C90.4006 35.6626 90.0791 35.8129 89.7951 35.9883C89.5195 36.1637 89.2982 36.3767 89.1311 36.6273C88.9724 36.8778 88.8931 37.1826 88.8931 37.5418C88.8931 37.8926 88.9808 38.2183 89.1562 38.5189C89.3316 38.8113 89.5988 39.0451 89.958 39.2205C90.3171 39.3959 90.7764 39.4836 91.336 39.4836ZM101.567 41.25V22.8342H104.185V41.25H101.567ZM115.69 41.25C114.838 41.417 114.003 41.488 113.184 41.463C112.366 41.4379 111.635 41.2792 110.992 40.9869C110.349 40.6946 109.864 40.2353 109.538 39.6089C109.246 39.0493 109.087 38.4814 109.062 37.9051C109.046 37.3205 109.037 36.6607 109.037 35.9257V23.9617H111.668V35.8004C111.668 36.3433 111.672 36.8152 111.681 37.2161C111.697 37.6169 111.785 37.9552 111.944 38.2308C112.244 38.7486 112.721 39.0451 113.372 39.1203C114.032 39.1871 114.804 39.1579 115.69 39.0326V41.25ZM106.444 29.8247V27.72H115.69V29.8247H106.444ZM128.038 41.25V34.5978C128.038 34.0716 127.992 33.5329 127.9 32.9817C127.817 32.4221 127.65 31.9043 127.399 31.4282C127.157 30.9522 126.811 30.568 126.36 30.2757C125.917 29.9834 125.336 29.8372 124.618 29.8372C124.151 29.8372 123.708 29.9165 123.29 30.0752C122.873 30.2256 122.505 30.4719 122.188 30.8144C121.879 31.1568 121.632 31.6078 121.449 32.1674C121.273 32.7269 121.186 33.4076 121.186 34.2094L119.557 33.5955C119.557 32.3678 119.787 31.2862 120.246 30.3508C120.705 29.4071 121.365 28.6721 122.225 28.1459C123.086 27.6198 124.125 27.3567 125.345 27.3567C126.28 27.3567 127.065 27.507 127.7 27.8077C128.335 28.1084 128.848 28.5051 129.241 28.9978C129.642 29.4822 129.947 30.0126 130.155 30.5889C130.364 31.1651 130.506 31.7289 130.581 32.2801C130.657 32.8313 130.694 33.3157 130.694 33.7333V41.25H128.038ZM118.53 41.25V23.21H120.872V32.9441H121.186V41.25H118.53ZM139.224 41.25V23.21H141.842V41.25H139.224ZM155.1 41.25V34.5978C155.1 34.0716 155.054 33.5329 154.962 32.9817C154.879 32.4221 154.712 31.9043 154.461 31.4282C154.219 30.9522 153.873 30.568 153.422 30.2757C152.979 29.9834 152.398 29.8372 151.68 29.8372C151.212 29.8372 150.77 29.9165 150.352 30.0752C149.935 30.2256 149.567 30.4719 149.25 30.8144C148.941 31.1568 148.694 31.6078 148.511 32.1674C148.335 32.7269 148.248 33.4076 148.248 34.2094L146.619 33.5955C146.619 32.3678 146.849 31.2862 147.308 30.3508C147.767 29.4071 148.427 28.6721 149.287 28.1459C150.148 27.6198 151.187 27.3567 152.407 27.3567C153.342 27.3567 154.127 27.507 154.762 27.8077C155.397 28.1084 155.91 28.5051 156.303 28.9978C156.704 29.4822 157.009 30.0126 157.217 30.5889C157.426 31.1651 157.568 31.7289 157.643 32.2801C157.719 32.8313 157.756 33.3157 157.756 33.7333V41.25H155.1ZM145.592 41.25V27.72H147.934V31.6287H148.248V41.25H145.592ZM166.193 41.6133C164.548 41.6133 163.207 41.25 162.172 40.5234C161.136 39.7968 160.501 38.7737 160.268 37.4541L162.949 37.0407C163.116 37.7422 163.5 38.2976 164.101 38.7069C164.711 39.1078 165.467 39.3082 166.369 39.3082C167.187 39.3082 167.826 39.1412 168.285 38.8071C168.753 38.473 168.987 38.0137 168.987 37.429C168.987 37.0866 168.903 36.811 168.736 36.6022C168.578 36.385 168.239 36.1804 167.722 35.9883C167.204 35.7962 166.415 35.5582 165.354 35.2743C164.193 34.9736 163.27 34.652 162.585 34.3096C161.909 33.9588 161.424 33.5538 161.132 33.0944C160.848 32.6267 160.706 32.063 160.706 31.4032C160.706 30.5847 160.923 29.8706 161.357 29.2609C161.792 28.6512 162.401 28.1794 163.187 27.8453C163.98 27.5112 164.907 27.3442 165.968 27.3442C167.003 27.3442 167.926 27.507 168.736 27.8327C169.546 28.1585 170.202 28.622 170.703 29.2233C171.204 29.8163 171.505 30.5137 171.605 31.3155L168.924 31.8041C168.832 31.1526 168.528 30.639 168.01 30.2631C167.492 29.8873 166.82 29.6827 165.993 29.6493C165.199 29.6159 164.556 29.7495 164.063 30.0502C163.571 30.3425 163.324 30.7475 163.324 31.2654C163.324 31.566 163.416 31.8208 163.6 32.0296C163.792 32.2384 164.16 32.4388 164.702 32.6309C165.245 32.823 166.047 33.0527 167.108 33.3199C168.244 33.6122 169.146 33.938 169.814 34.2971C170.482 34.6479 170.958 35.0696 171.242 35.5624C171.534 36.0468 171.68 36.6356 171.68 37.3288C171.68 38.6651 171.192 39.7133 170.215 40.4733C169.246 41.2333 167.905 41.6133 166.193 41.6133ZM179.551 41.6133C178.616 41.6133 177.831 41.463 177.196 41.1623C176.561 40.8616 176.043 40.4691 175.642 39.9847C175.25 39.4919 174.949 38.9574 174.74 38.3811C174.532 37.8049 174.39 37.2411 174.315 36.6899C174.239 36.1387 174.202 35.6543 174.202 35.2367V27.72H176.858V34.3723C176.858 34.8984 176.899 35.4413 176.983 36.0009C177.075 36.5521 177.242 37.0657 177.484 37.5418C177.735 38.0178 178.081 38.402 178.524 38.6943C178.975 38.9866 179.559 39.1328 180.278 39.1328C180.745 39.1328 181.188 39.0576 181.606 38.9073C182.023 38.7486 182.387 38.4981 182.696 38.1556C183.013 37.8132 183.259 37.3622 183.435 36.8026C183.618 36.2431 183.71 35.5624 183.71 34.7606L185.339 35.3745C185.339 36.6022 185.109 37.6879 184.65 38.6317C184.191 39.5671 183.531 40.2979 182.671 40.8241C181.81 41.3502 180.771 41.6133 179.551 41.6133ZM184.024 41.25V37.3413H183.71V27.72H186.354V41.25H184.024ZM189.867 41.25V27.72H192.198V31.0023L191.872 30.5763C192.039 30.142 192.256 29.7453 192.523 29.3862C192.791 29.0187 193.1 28.718 193.45 28.4842C193.793 28.2336 194.173 28.0415 194.59 27.9079C195.016 27.7659 195.451 27.6824 195.893 27.6574C196.336 27.624 196.762 27.6448 197.171 27.72V30.1754C196.728 30.0585 196.236 30.0251 195.693 30.0752C195.158 30.1253 194.666 30.2965 194.215 30.5889C193.789 30.8645 193.45 31.1985 193.2 31.5911C192.958 31.9836 192.782 32.4221 192.674 32.9065C192.565 33.3826 192.511 33.8878 192.511 34.4224V41.25H189.867ZM202.986 41.6258C201.984 41.6258 201.145 41.4421 200.468 41.0746C199.792 40.6988 199.278 40.206 198.927 39.5963C198.585 38.9783 198.414 38.3018 198.414 37.5668C198.414 36.882 198.535 36.2806 198.777 35.7628C199.019 35.245 199.378 34.8065 199.854 34.4474C200.33 34.0799 200.915 33.7834 201.608 33.5579C202.21 33.3826 202.89 33.228 203.65 33.0944C204.41 32.9608 205.208 32.8355 206.043 32.7186C206.887 32.6017 207.722 32.4847 208.549 32.3678L207.597 32.894C207.613 31.8333 207.388 31.0482 206.92 30.5388C206.461 30.0209 205.667 29.762 204.54 29.762C203.83 29.762 203.178 29.9291 202.585 30.2631C201.992 30.5889 201.579 31.1317 201.345 31.8918L198.902 31.1401C199.236 29.9792 199.871 29.0563 200.806 28.3714C201.75 27.6866 203.003 27.3442 204.565 27.3442C205.776 27.3442 206.828 27.553 207.722 27.9706C208.624 28.3798 209.284 29.0312 209.701 29.9249C209.918 30.3675 210.052 30.8352 210.102 31.328C210.152 31.8208 210.177 32.3511 210.177 32.919V41.25H207.86V38.1556L208.311 38.5565C207.751 39.5922 207.037 40.3647 206.168 40.8742C205.308 41.3753 204.247 41.6258 202.986 41.6258ZM203.45 39.4836C204.193 39.4836 204.832 39.3541 205.367 39.0952C205.901 38.828 206.331 38.4897 206.657 38.0805C206.983 37.6712 207.196 37.2453 207.296 36.8026C207.438 36.4018 207.517 35.9508 207.534 35.4496C207.559 34.9485 207.571 34.5476 207.571 34.247L208.423 34.5602C207.597 34.6854 206.845 34.7982 206.168 34.8984C205.492 34.9986 204.878 35.0989 204.327 35.1991C203.784 35.291 203.3 35.4037 202.874 35.5373C202.514 35.6626 202.193 35.8129 201.909 35.9883C201.633 36.1637 201.412 36.3767 201.245 36.6273C201.086 36.8778 201.007 37.1826 201.007 37.5418C201.007 37.8926 201.095 38.2183 201.27 38.5189C201.445 38.8113 201.713 39.0451 202.072 39.2205C202.431 39.3959 202.89 39.4836 203.45 39.4836ZM222.926 41.25V34.5978C222.926 34.0716 222.88 33.5329 222.789 32.9817C222.705 32.4221 222.538 31.9043 222.287 31.4282C222.045 30.9522 221.699 30.568 221.248 30.2757C220.805 29.9834 220.225 29.8372 219.506 29.8372C219.039 29.8372 218.596 29.9165 218.178 30.0752C217.761 30.2256 217.393 30.4719 217.076 30.8144C216.767 31.1568 216.521 31.6078 216.337 32.1674C216.161 32.7269 216.074 33.4076 216.074 34.2094L214.445 33.5955C214.445 32.3678 214.675 31.2862 215.134 30.3508C215.593 29.4071 216.253 28.6721 217.114 28.1459C217.974 27.6198 219.014 27.3567 220.233 27.3567C221.168 27.3567 221.953 27.507 222.588 27.8077C223.223 28.1084 223.737 28.5051 224.129 28.9978C224.53 29.4822 224.835 30.0126 225.044 30.5889C225.252 31.1651 225.394 31.7289 225.47 32.2801C225.545 32.8313 225.582 33.3157 225.582 33.7333V41.25H222.926ZM213.418 41.25V27.72H215.761V31.6287H216.074V41.25H213.418ZM234.462 41.6258C233.076 41.6258 231.898 41.3168 230.929 40.6988C229.96 40.0807 229.217 39.233 228.699 38.1556C228.19 37.0783 227.931 35.8547 227.922 34.485C227.931 33.0902 228.198 31.8583 228.724 30.7893C229.25 29.7119 230.002 28.8684 230.979 28.2587C231.956 27.649 233.13 27.3442 234.5 27.3442C235.978 27.3442 237.239 27.7116 238.283 28.4466C239.335 29.1816 240.028 30.188 240.363 31.4658L237.757 32.2175C237.498 31.4575 237.072 30.8686 236.479 30.4511C235.894 30.0251 235.222 29.8121 234.462 29.8121C233.602 29.8121 232.896 30.0168 232.345 30.426C231.794 30.8269 231.384 31.3781 231.117 32.0797C230.85 32.7812 230.712 33.583 230.704 34.485C230.712 35.8798 231.029 37.0073 231.656 37.8675C232.29 38.7277 233.226 39.1579 234.462 39.1579C235.305 39.1579 235.986 38.9658 236.504 38.5816C237.03 38.189 237.431 37.6295 237.707 36.9029L240.363 37.5293C239.92 38.8488 239.189 39.8636 238.17 40.5735C237.151 41.2751 235.915 41.6258 234.462 41.6258ZM248.548 41.6258C247.204 41.6258 246.022 41.3335 245.003 40.7489C243.993 40.1559 243.203 39.3333 242.635 38.2809C242.076 37.2202 241.796 35.9925 241.796 34.5978C241.796 33.1195 242.072 31.8375 242.623 30.7517C243.182 29.666 243.959 28.8266 244.953 28.2336C245.947 27.6407 247.104 27.3442 248.423 27.3442C249.801 27.3442 250.975 27.6657 251.943 28.3088C252.912 28.9435 253.635 29.8497 254.111 31.0273C254.595 32.2049 254.787 33.6039 254.687 35.2241H252.069V34.272C252.052 32.7019 251.751 31.541 251.167 30.7893C250.59 30.0376 249.709 29.6618 248.523 29.6618C247.212 29.6618 246.227 30.0752 245.567 30.9021C244.907 31.7289 244.577 32.9232 244.577 34.485C244.577 35.9716 244.907 37.1242 245.567 37.9427C246.227 38.7528 247.179 39.1579 248.423 39.1579C249.242 39.1579 249.947 38.9741 250.54 38.6066C251.142 38.2308 251.609 37.6963 251.943 37.0031L254.512 37.8174C253.986 39.0284 253.188 39.968 252.119 40.6361C251.05 41.2959 249.86 41.6258 248.548 41.6258ZM243.725 35.2241V33.1821H253.384V35.2241H243.725Z" fill="white"/>
</svg>
