<svg width="226" height="54" viewBox="0 0 226 54" fill="none" xmlns="http://www.w3.org/2000/svg">
<path d="M22.9501 17.8146V27.8708L20.5602 27.3991V17.8146C20.5602 17.7944 20.5602 17.7742 20.5602 17.7541C20.5602 17.7339 20.5582 17.7138 20.5541 17.6936C20.5541 17.6735 20.5541 17.6533 20.5541 17.6331C20.5501 17.613 20.5481 17.5928 20.5481 17.5727C20.544 17.5525 20.542 17.5324 20.542 17.5122C20.5379 17.4961 20.5339 17.4779 20.5298 17.4578C20.5258 17.4376 20.5237 17.4175 20.5237 17.3973C20.5197 17.3772 20.5156 17.357 20.5116 17.3368C20.5075 17.3167 20.5035 17.2985 20.4994 17.2824C20.4954 17.2623 20.4893 17.2421 20.4812 17.2219C20.4812 17.2038 20.4751 17.1857 20.469 17.1675C20.4649 17.1474 20.4589 17.1292 20.4508 17.1131C20.4467 17.0929 20.4406 17.0728 20.4325 17.0526C20.4285 17.0365 20.4224 17.0184 20.4143 16.9982C20.4062 16.9821 20.3981 16.9639 20.3899 16.9438C20.3859 16.9277 20.3798 16.9095 20.3717 16.8894C20.3636 16.8732 20.3555 16.8571 20.3474 16.841C20.3393 16.8208 20.3312 16.8027 20.3231 16.7866C20.3149 16.7704 20.3068 16.7543 20.2987 16.7382C20.2906 16.718 20.2805 16.6999 20.2683 16.6838C20.2602 16.6676 20.2521 16.6515 20.244 16.6354C20.2318 16.6193 20.2217 16.6031 20.2136 16.587C20.2014 16.5709 20.1913 16.5548 20.1832 16.5386C20.171 16.5225 20.1609 16.5064 20.1528 16.4903C20.1406 16.4741 20.1285 16.458 20.1163 16.4419C20.1082 16.4257 20.0981 16.4096 20.0859 16.3935C20.0737 16.3814 20.0616 16.3673 20.0494 16.3512C20.0372 16.335 20.0251 16.3209 20.0129 16.3088C20.0008 16.2927 19.9886 16.2766 19.9764 16.2605C19.9643 16.2484 19.9521 16.2343 19.9399 16.2181C19.9237 16.206 19.9095 16.1919 19.8974 16.1758C19.8852 16.1637 19.8731 16.1496 19.8609 16.1335C19.8447 16.1214 19.8305 16.1093 19.8183 16.0972C19.8062 16.0851 19.792 16.073 19.7758 16.0609C19.7636 16.0448 19.7494 16.0307 19.7332 16.0186C19.717 16.0065 19.7028 15.9944 19.6906 15.9823C19.6744 15.9702 19.6582 15.9581 19.642 15.946C19.6298 15.9339 19.6156 15.9218 19.5994 15.9097C19.5832 15.9017 19.567 15.8916 19.5508 15.8795C19.5345 15.8674 19.5204 15.8573 19.5082 15.8493C19.492 15.8372 19.4758 15.8251 19.4595 15.813C19.4433 15.8049 19.4271 15.7948 19.4109 15.7827C19.3947 15.7747 19.3785 15.7646 19.3622 15.7525C19.342 15.7445 19.3237 15.7364 19.3075 15.7283C19.2913 15.7203 19.2751 15.7102 19.2589 15.6981C19.2427 15.69 19.2244 15.682 19.2041 15.6739C19.1879 15.6658 19.1717 15.6578 19.1555 15.6497C19.1352 15.6417 19.117 15.6336 19.1008 15.6255C19.0805 15.6175 19.0622 15.6114 19.046 15.6074C19.0298 15.5993 19.0116 15.5913 18.9913 15.5832C18.971 15.5792 18.9528 15.5731 18.9366 15.5651C18.9163 15.561 18.8981 15.555 18.8818 15.5469C18.8616 15.5429 18.8413 15.5368 18.821 15.5288C18.8048 15.5247 18.7866 15.5207 18.7663 15.5167C18.746 15.5126 18.7278 15.5086 18.7116 15.5046C18.6913 15.4965 18.671 15.4905 18.6508 15.4864C18.6305 15.4824 18.6102 15.4804 18.59 15.4804C18.5737 15.4764 18.5555 15.4723 18.5352 15.4683C18.5149 15.4643 18.4947 15.4623 18.4744 15.4623C18.4541 15.4582 18.4339 15.4542 18.4136 15.4502C18.3933 15.4502 18.3731 15.4502 18.3528 15.4502C18.3325 15.4461 18.3122 15.4441 18.292 15.4441C18.2717 15.4441 18.2514 15.4441 18.2312 15.4441C18.2109 15.4401 18.1906 15.4381 18.1704 15.4381C18.1501 15.4381 18.1298 15.4401 18.1095 15.4441C18.0893 15.4441 18.069 15.4441 18.0487 15.4441C18.0285 15.4441 18.0082 15.4461 17.9879 15.4502C17.9677 15.4502 17.9474 15.4502 17.9271 15.4502C17.9068 15.4542 17.8866 15.4582 17.8663 15.4623C17.846 15.4623 17.8258 15.4643 17.8055 15.4683C17.7852 15.4723 17.7649 15.4764 17.7447 15.4804C17.7244 15.4804 17.7062 15.4824 17.6899 15.4864C17.6697 15.4905 17.6494 15.4965 17.6291 15.5046C17.6089 15.5086 17.5906 15.5126 17.5744 15.5167C17.5541 15.5207 17.5339 15.5247 17.5136 15.5288C17.4974 15.5368 17.4791 15.5429 17.4589 15.5469C17.4386 15.555 17.4204 15.561 17.4041 15.5651C17.3839 15.5731 17.3656 15.5792 17.3494 15.5832C17.3291 15.5913 17.3109 15.5993 17.2947 15.6074C17.2744 15.6114 17.2562 15.6175 17.2399 15.6255C17.2197 15.6336 17.2014 15.6417 17.1852 15.6497C17.169 15.6578 17.1528 15.6658 17.1366 15.6739C17.1163 15.682 17.0981 15.69 17.0818 15.6981C17.0656 15.7102 17.0474 15.7203 17.0271 15.7283C17.0109 15.7364 16.9947 15.7445 16.9785 15.7525C16.9622 15.7646 16.946 15.7747 16.9298 15.7827C16.9136 15.7948 16.8974 15.8049 16.8812 15.813C16.8649 15.8251 16.8487 15.8372 16.8325 15.8493C16.8163 15.8573 16.8001 15.8674 16.7839 15.8795C16.7717 15.8916 16.7575 15.9017 16.7413 15.9097C16.7251 15.9218 16.7089 15.9339 16.6927 15.946C16.6764 15.9581 16.6622 15.9702 16.6501 15.9823C16.6339 15.9944 16.6197 16.0065 16.6075 16.0186C16.5913 16.0307 16.5771 16.0448 16.5649 16.0609C16.5487 16.073 16.5345 16.0851 16.5224 16.0972C16.5062 16.1093 16.492 16.1214 16.4798 16.1335C16.4677 16.1496 16.4535 16.1637 16.4372 16.1758C16.4251 16.1919 16.4129 16.206 16.4008 16.2181C16.3886 16.2343 16.3764 16.2484 16.3643 16.2605C16.3521 16.2766 16.3399 16.2927 16.3278 16.3088C16.3156 16.3209 16.3035 16.335 16.2913 16.3512C16.2791 16.3673 16.267 16.3814 16.2548 16.3935C16.2427 16.4096 16.2305 16.4257 16.2183 16.4419C16.2102 16.458 16.2001 16.4741 16.1879 16.4903C16.1758 16.5064 16.1656 16.5225 16.1575 16.5386C16.1454 16.5548 16.1352 16.5709 16.1271 16.587C16.115 16.6031 16.1048 16.6193 16.0967 16.6354C16.0886 16.6515 16.0785 16.6676 16.0663 16.6838C16.0582 16.6999 16.0501 16.718 16.042 16.7382C16.0339 16.7543 16.0258 16.7704 16.0177 16.7866C16.0055 16.8027 15.9974 16.8208 15.9933 16.841C15.9852 16.8571 15.9771 16.8732 15.969 16.8894C15.9609 16.9095 15.9528 16.9277 15.9447 16.9438C15.9366 16.9639 15.9305 16.9821 15.9264 16.9982C15.9183 17.0184 15.9102 17.0365 15.9021 17.0526C15.8981 17.0728 15.894 17.0929 15.8899 17.1131C15.8818 17.1292 15.8758 17.1474 15.8717 17.1675C15.8636 17.1877 15.8575 17.2058 15.8535 17.2219C15.8494 17.2421 15.8454 17.2623 15.8413 17.2824C15.8372 17.2985 15.8332 17.3167 15.8291 17.3368C15.8251 17.357 15.821 17.3772 15.817 17.3973C15.8129 17.4175 15.8089 17.4376 15.8048 17.4578L15.7987 17.5122C15.7947 17.5324 15.7927 17.5525 15.7927 17.5727C15.7886 17.5928 15.7866 17.613 15.7866 17.6331C15.7866 17.6533 15.7845 17.6735 15.7805 17.6936C15.7805 17.7138 15.7805 17.7339 15.7805 17.7541C15.7805 17.7742 15.7805 17.7944 15.7805 17.8146V26.4558L13.3906 25.9841V17.8146C13.3906 16.7745 13.7251 15.813 14.2967 15.0329C14.4001 14.8878 14.5156 14.7487 14.6372 14.6157C15.5068 13.6663 16.7717 13.0616 18.1704 13.0616C19.7636 13.0616 21.1744 13.8417 22.044 15.0329C22.3055 15.3897 22.5122 15.7827 22.6704 16.206C22.8467 16.7079 22.9501 17.2522 22.9501 17.8146Z" fill="#051A6F"/>
<path d="M32.5094 17.8146V29.7635L30.4236 29.3523L30.1196 29.2918V17.742V17.7057V17.6634V17.6271V17.5908L30.1135 17.5485V17.4759V17.4396V17.3973L30.1074 17.361V17.3248V17.2885V17.2461L30.1013 17.2099V17.1736V17.1373L30.0952 17.095V17.0587L30.0892 17.0224V16.9861L30.0831 16.9075V16.8712L30.077 16.8349V16.7987L30.0709 16.7624V16.7261L30.0648 16.6838V16.6475L30.0527 16.5749L30.0466 16.5024L30.0405 16.4661V16.4237L30.0344 16.3875L30.0284 16.3512L30.0162 16.2786V16.2423L30.0101 16.2061L30.004 16.1698L29.9979 16.1335L29.9919 16.0972L29.9858 16.0609V16.0246L29.9797 15.9823L29.9736 15.946L29.9675 15.9098L29.9615 15.8735L29.9554 15.8372L29.9493 15.8009L29.9432 15.7646L29.9371 15.7283L29.9311 15.6921L29.9189 15.6558L29.9128 15.6195L29.9067 15.5832L29.9006 15.5469L29.8946 15.5106L29.8885 15.4744L29.8824 15.4381C29.854 15.301 29.8216 15.166 29.7851 15.0329C28.5263 9.81434 23.8013 5.93215 18.1702 5.93215C13.2385 5.93215 9.00605 8.90729 7.18173 13.1463C6.92024 13.751 6.70741 14.3799 6.5493 15.0329C6.51687 15.166 6.48646 15.301 6.45808 15.4381L6.452 15.4744L6.44592 15.5106L6.43984 15.5469L6.43376 15.5832L6.4216 15.6195L6.41551 15.6558L6.40943 15.6921L6.40335 15.7283L6.39727 15.7646L6.39119 15.8009L6.38511 15.8372L6.37903 15.8735L6.37295 15.9098L6.36687 15.946L6.36078 15.9823L6.3547 16.0246L6.34862 16.0609L6.34254 16.0972L6.33646 16.1335V16.1698L6.3243 16.2423L6.31822 16.2786L6.31214 16.3149V16.3512L6.30605 16.3875L6.29997 16.4237L6.29389 16.4661V16.5024L6.28173 16.5749V16.6112L6.27565 16.6475V16.6838L6.26957 16.7261V16.7624L6.26349 16.7987L6.25741 16.8349V16.8712V16.9075L6.25133 16.9498V16.9861L6.24524 17.0224V17.0587L6.23916 17.095V17.1373V17.1736L6.23308 17.2099V17.2461V17.2885L6.227 17.3248V17.361V17.3973V17.4396L6.22092 17.5485V17.5908V17.6271V17.6634V17.7057V17.742V24.5631L3.83105 24.0914V17.8146C3.83105 17.0103 3.89795 16.2121 4.02565 15.4381C4.04997 15.305 4.07632 15.17 4.1047 15.0329C5.40605 8.49004 11.2074 3.55566 18.1702 3.55566C25.127 3.55566 30.9344 8.49004 32.2358 15.0329C32.2642 15.17 32.2885 15.305 32.3088 15.4381C32.4425 16.2121 32.5094 17.0103 32.5094 17.8146Z" fill="#051A6F"/>
<path d="M27.7293 17.742V28.8202L25.3394 28.3485V17.8146C25.3394 17.4457 25.309 17.0768 25.2543 16.72C25.1874 16.2786 25.0779 15.8493 24.932 15.4381C24.8833 15.301 24.8306 15.166 24.7739 15.0329C23.6793 12.4811 21.1313 10.6851 18.1698 10.6851C15.5793 10.6851 13.3049 12.0578 12.0462 14.1077C11.8637 14.402 11.7036 14.7104 11.5658 15.0329C11.509 15.166 11.4563 15.301 11.4076 15.4381C11.1401 16.1819 11.0002 16.9861 11.0002 17.8146V25.5124L8.61035 25.0347V17.742V17.6997V17.6634V17.6271V17.5848V17.5485L8.61643 17.5122V17.4699V17.4336V17.3973L8.62251 17.361V17.3187V17.2824L8.62859 17.2461V17.2099V17.1675L8.63468 17.095L8.64076 17.0526V17.0164L8.64684 16.9801V16.9438L8.65292 16.9075V16.8652L8.659 16.8289L8.66508 16.7926V16.7563L8.67116 16.72L8.67724 16.6777L8.68332 16.6414V16.6052L8.6894 16.5689L8.69549 16.5326L8.70157 16.4963L8.70765 16.46L8.71373 16.4237L8.71981 16.3814V16.3451L8.72589 16.3088L8.73197 16.2726L8.73805 16.2363L8.74414 16.2L8.7563 16.1637L8.76238 16.1274L8.76846 16.0912L8.77454 16.0549L8.78062 16.0186L8.7867 15.9823L8.79278 15.946L8.80495 15.9097L8.81103 15.8735L8.81711 15.8372L8.82319 15.8009L8.83535 15.7646L8.84143 15.7283L8.84751 15.6921L8.85968 15.6558L8.86576 15.6195L8.87792 15.5832L8.884 15.5469L8.89008 15.5106L8.90224 15.4744L8.90832 15.4381C8.94481 15.301 8.98332 15.166 9.02386 15.0329C9.17589 14.5431 9.36441 14.0714 9.58941 13.6179C11.1462 10.4735 14.4056 8.30862 18.1698 8.30862C22.4752 8.30862 26.1117 11.1447 27.3097 15.0329C27.3502 15.166 27.3887 15.301 27.4252 15.4381L27.4374 15.4744L27.4435 15.5106L27.4556 15.5469L27.4617 15.5832L27.4739 15.6195L27.4799 15.6558L27.486 15.6921L27.4982 15.7283L27.5043 15.7646L27.5103 15.8009L27.5225 15.8372L27.5286 15.8735L27.5347 15.9097L27.5408 15.946L27.5529 15.9823L27.559 16.0186L27.5651 16.0549L27.5712 16.0912L27.5772 16.1274L27.5894 16.2L27.5955 16.2363L27.6016 16.2726L27.6076 16.3088L27.6137 16.3451L27.6198 16.3814L27.6259 16.4237L27.632 16.46L27.6381 16.4963L27.6441 16.5326V16.5689L27.6502 16.6052L27.6563 16.6414L27.6624 16.6777V16.72L27.6685 16.7563L27.6745 16.7926L27.6806 16.8289V16.8652L27.6867 16.9075V16.9438L27.6928 17.0164L27.6989 17.0526V17.095L27.7049 17.1675L27.711 17.2038V17.2099V17.2461V17.2824L27.7171 17.3187V17.361V17.3973L27.7232 17.4336V17.4699V17.5122V17.5485V17.5848L27.7293 17.6271V17.6634V17.6997V17.742Z" fill="#051A6F"/>
<path d="M30.4236 29.189L30.1196 29.1286L27.7297 28.6569L25.3398 28.1852L22.95 27.7136L20.5601 27.2419V35.8771C20.5601 35.8972 20.5601 35.9174 20.5601 35.9375C20.5601 35.9577 20.5581 35.9778 20.554 35.998C20.554 36.0182 20.554 36.0383 20.554 36.0585C20.55 36.0786 20.5479 36.0988 20.5479 36.1189C20.5439 36.1391 20.5419 36.1593 20.5419 36.1794L20.5297 36.2399C20.5256 36.26 20.5236 36.2802 20.5236 36.3004C20.5196 36.3205 20.5155 36.3387 20.5115 36.3548C20.5074 36.3749 20.5034 36.3951 20.4993 36.4153C20.4952 36.4354 20.4892 36.4535 20.4811 36.4697C20.4811 36.4878 20.475 36.512 20.4689 36.5301C20.4648 36.5463 20.4588 36.5644 20.4506 36.5846C20.4466 36.6047 20.4405 36.6229 20.4324 36.639C20.4284 36.6592 20.4223 36.6773 20.4142 36.6934C20.4061 36.7136 20.4 36.7317 20.3959 36.7478C20.3878 36.768 20.3797 36.7861 20.3716 36.8023C20.3635 36.8224 20.3554 36.8406 20.3473 36.8567C20.3392 36.8728 20.3311 36.891 20.3229 36.9111C20.3148 36.9272 20.3067 36.9434 20.2986 36.9595C20.2905 36.9756 20.2804 36.9938 20.2682 37.0139C20.2601 37.03 20.252 37.0462 20.2439 37.0623C20.2317 37.0784 20.2216 37.0945 20.2135 37.1107C20.2013 37.1268 20.1912 37.1429 20.1831 37.159C20.1709 37.1752 20.1608 37.1913 20.1527 37.2074C20.1405 37.2235 20.1284 37.2397 20.1162 37.2558C20.1081 37.2719 20.0979 37.286 20.0858 37.2981C20.0736 37.3142 20.0615 37.3304 20.0493 37.3465C20.0371 37.3586 20.025 37.3727 20.0128 37.3888C20.0006 37.4049 19.9885 37.4191 19.9763 37.4312C19.9642 37.4473 19.952 37.4614 19.9398 37.4735C19.9277 37.4896 19.9135 37.5037 19.8973 37.5158C19.8851 37.5319 19.8729 37.546 19.8608 37.5581C19.8446 37.5702 19.8304 37.5843 19.8182 37.6005C19.8061 37.6126 19.7919 37.6247 19.7756 37.6368C19.7635 37.6488 19.7493 37.6609 19.7331 37.673C19.7169 37.6851 19.7027 37.6972 19.6905 37.7093C19.6743 37.7214 19.6601 37.7335 19.6479 37.7456C19.6317 37.7577 19.6155 37.7698 19.5993 37.7819C19.5831 37.794 19.5669 37.8061 19.5506 37.8182C19.5385 37.8262 19.5243 37.8363 19.5081 37.8484C19.4919 37.8605 19.4756 37.8706 19.4594 37.8786C19.4432 37.8907 19.427 37.9008 19.4108 37.9089C19.3946 37.921 19.3784 37.931 19.3621 37.9391C19.3419 37.9472 19.3236 37.9572 19.3074 37.9693C19.2912 37.9774 19.275 37.9855 19.2588 37.9935C19.2425 38.0016 19.2243 38.0097 19.204 38.0177C19.1878 38.0258 19.1716 38.0359 19.1554 38.048C19.1351 38.052 19.1169 38.058 19.1006 38.0661C19.0804 38.0742 19.0621 38.0822 19.0459 38.0903C19.0297 38.0983 19.0115 38.1044 18.9912 38.1084C18.9709 38.1165 18.9527 38.1245 18.9365 38.1326C18.9162 38.1366 18.8979 38.1427 18.8817 38.1508C18.8615 38.1548 18.8412 38.1588 18.8209 38.1628C18.8047 38.1709 18.7865 38.177 18.7662 38.181C18.7459 38.185 18.7277 38.189 18.7115 38.1931C18.6912 38.1971 18.6709 38.2011 18.6506 38.2052C18.6304 38.2092 18.6101 38.2132 18.5898 38.2173C18.5736 38.2213 18.5554 38.2253 18.5351 38.2294C18.5148 38.2294 18.4946 38.2314 18.4743 38.2354C18.454 38.2394 18.4338 38.2415 18.4135 38.2415C18.3932 38.2455 18.3729 38.2475 18.3527 38.2475C18.3324 38.2475 18.3121 38.2495 18.2919 38.2535C18.2716 38.2535 18.2513 38.2535 18.2311 38.2535C18.2108 38.2535 18.1905 38.2535 18.1702 38.2535C18.15 38.2535 18.1297 38.2535 18.1094 38.2535C18.0892 38.2535 18.0689 38.2535 18.0486 38.2535C18.0284 38.2495 18.0081 38.2475 17.9878 38.2475C17.9675 38.2475 17.9473 38.2455 17.927 38.2415C17.9067 38.2415 17.8865 38.2394 17.8662 38.2354C17.8459 38.2314 17.8256 38.2294 17.8054 38.2294C17.7851 38.2253 17.7648 38.2213 17.7446 38.2173C17.7243 38.2132 17.7061 38.2092 17.6898 38.2052C17.6696 38.2011 17.6493 38.1971 17.629 38.1931C17.6088 38.189 17.5905 38.185 17.5743 38.181C17.554 38.177 17.5338 38.1709 17.5135 38.1628C17.4973 38.1588 17.479 38.1548 17.4588 38.1508C17.4385 38.1427 17.4202 38.1366 17.404 38.1326C17.3838 38.1245 17.3655 38.1165 17.3493 38.1084C17.329 38.1044 17.3108 38.0983 17.2946 38.0903C17.2743 38.0822 17.2561 38.0742 17.2398 38.0661C17.2196 38.058 17.2013 38.052 17.1851 38.048C17.1689 38.0359 17.1527 38.0258 17.1365 38.0177C17.1162 38.0097 17.0979 38.0016 17.0817 37.9935C17.0655 37.9855 17.0473 37.9774 17.027 37.9693C17.0108 37.9572 16.9946 37.9472 16.9784 37.9391C16.9621 37.931 16.9459 37.921 16.9297 37.9089C16.9135 37.9008 16.8973 37.8907 16.8811 37.8786C16.8648 37.8706 16.8486 37.8605 16.8324 37.8484C16.8162 37.8363 16.8 37.8262 16.7838 37.8182C16.7716 37.8061 16.7574 37.794 16.7412 37.7819C16.725 37.7698 16.7088 37.7577 16.6925 37.7456C16.6763 37.7335 16.6621 37.7214 16.65 37.7093C16.6338 37.6972 16.6196 37.6851 16.6074 37.673C16.5912 37.6609 16.577 37.6488 16.5648 37.6368C16.5486 37.6247 16.5344 37.6126 16.5223 37.6005C16.5061 37.5843 16.4919 37.5702 16.4797 37.5581C16.4675 37.546 16.4534 37.5319 16.4371 37.5158C16.425 37.5037 16.4128 37.4896 16.4006 37.4735C16.3885 37.4614 16.3763 37.4473 16.3642 37.4312C16.352 37.4191 16.3398 37.4049 16.3277 37.3888C16.3155 37.3727 16.3034 37.3586 16.2912 37.3465C16.279 37.3304 16.2669 37.3142 16.2547 37.2981C16.2425 37.286 16.2304 37.2719 16.2182 37.2558C16.2101 37.2397 16.2 37.2235 16.1878 37.2074C16.1756 37.1913 16.1655 37.1752 16.1574 37.159C16.1452 37.1429 16.1351 37.1268 16.127 37.1107C16.1148 37.0945 16.1047 37.0784 16.0966 37.0623C16.0885 37.0462 16.0784 37.03 16.0662 37.0139C16.0581 36.9938 16.05 36.9756 16.0419 36.9595C16.0338 36.9434 16.0256 36.9272 16.0175 36.9111C16.0054 36.891 15.9973 36.8728 15.9932 36.8567C15.9851 36.8406 15.977 36.8224 15.9689 36.8023C15.9608 36.7861 15.9527 36.768 15.9446 36.7478C15.9365 36.7317 15.9304 36.7136 15.9263 36.6934C15.9182 36.6773 15.9101 36.6592 15.902 36.639C15.8979 36.6229 15.8939 36.6047 15.8898 36.5846C15.8817 36.5644 15.8756 36.5463 15.8716 36.5301C15.8635 36.51 15.8574 36.4898 15.8534 36.4697C15.8493 36.4535 15.8452 36.4354 15.8412 36.4153C15.8371 36.3951 15.8331 36.3749 15.829 36.3548C15.825 36.3387 15.8209 36.3205 15.8169 36.3004C15.8128 36.2802 15.8088 36.26 15.8047 36.2399C15.8047 36.2197 15.8027 36.1996 15.7986 36.1794C15.7946 36.1593 15.7925 36.1391 15.7925 36.1189C15.7885 36.0988 15.7865 36.0786 15.7865 36.0585C15.7865 36.0383 15.7844 36.0182 15.7804 35.998C15.7804 35.9778 15.7804 35.9577 15.7804 35.9375C15.7804 35.9174 15.7804 35.8972 15.7804 35.8771V26.2925L13.3905 25.8209L11.0006 25.3492L8.61078 24.8775L6.22092 24.3998L3.83105 23.9281V35.8771C3.83105 36.6874 3.89795 37.4795 4.02565 38.2535C5.16889 44.996 11.0675 50.136 18.1702 50.136C25.2729 50.136 31.1716 44.996 32.3088 38.2535C32.4425 37.4795 32.5094 36.6874 32.5094 35.8771V29.6002L30.4236 29.189Z" fill="#2B8F1C"/>
<path d="M47.664 35V19.16H49.963V25.991H57.883V19.16H60.193V35H57.883V28.158H49.963V35H47.664ZM68.5522 35.33C67.3715 35.33 66.3338 35.0733 65.4392 34.56C64.5518 34.0393 63.8588 33.317 63.3602 32.393C62.8688 31.4617 62.6232 30.3837 62.6232 29.159C62.6232 27.861 62.8652 26.7353 63.3492 25.782C63.8405 24.8287 64.5225 24.0917 65.3952 23.571C66.2678 23.0503 67.2835 22.79 68.4422 22.79C69.6522 22.79 70.6825 23.0723 71.5332 23.637C72.3838 24.1943 73.0182 24.99 73.4362 26.024C73.8615 27.058 74.0302 28.2863 73.9422 29.709H71.6432V28.873C71.6285 27.4943 71.3645 26.475 70.8512 25.815C70.3452 25.155 69.5715 24.825 68.5302 24.825C67.3788 24.825 66.5135 25.188 65.9342 25.914C65.3548 26.64 65.0652 27.6887 65.0652 29.06C65.0652 30.3653 65.3548 31.3773 65.9342 32.096C66.5135 32.8073 67.3495 33.163 68.4422 33.163C69.1608 33.163 69.7805 33.0017 70.3012 32.679C70.8292 32.349 71.2398 31.8797 71.5332 31.271L73.7882 31.986C73.3262 33.0493 72.6258 33.8743 71.6872 34.461C70.7485 35.0403 69.7035 35.33 68.5522 35.33ZM64.3172 29.709V27.916H72.7982V29.709H64.3172ZM79.5503 35.33C78.6703 35.33 77.9333 35.1687 77.3393 34.846C76.7453 34.516 76.2943 34.0833 75.9863 33.548C75.6856 33.0053 75.5353 32.4113 75.5353 31.766C75.5353 31.1647 75.6416 30.6367 75.8543 30.182C76.0669 29.7273 76.3823 29.3423 76.8003 29.027C77.2183 28.7043 77.7316 28.444 78.3403 28.246C78.8683 28.092 79.4659 27.9563 80.1333 27.839C80.8006 27.7217 81.5009 27.6117 82.2343 27.509C82.9749 27.4063 83.7083 27.3037 84.4343 27.201L83.5983 27.663C83.6129 26.7317 83.4149 26.0423 83.0043 25.595C82.6009 25.1403 81.9043 24.913 80.9143 24.913C80.2909 24.913 79.7189 25.0597 79.1983 25.353C78.6776 25.639 78.3146 26.1157 78.1093 26.783L75.9643 26.123C76.2576 25.1037 76.8149 24.2933 77.6363 23.692C78.4649 23.0907 79.5649 22.79 80.9363 22.79C81.9996 22.79 82.9236 22.9733 83.7083 23.34C84.5003 23.6993 85.0796 24.2713 85.4463 25.056C85.6369 25.4447 85.7543 25.8553 85.7983 26.288C85.8423 26.7207 85.8643 27.1863 85.8643 27.685V35H83.8293V32.283L84.2253 32.635C83.7339 33.5443 83.1069 34.2227 82.3443 34.67C81.5889 35.11 80.6576 35.33 79.5503 35.33ZM79.9573 33.449C80.6099 33.449 81.1709 33.3353 81.6403 33.108C82.1096 32.8733 82.4873 32.5763 82.7733 32.217C83.0593 31.8577 83.2463 31.4837 83.3343 31.095C83.4589 30.743 83.5286 30.347 83.5433 29.907C83.5653 29.467 83.5763 29.115 83.5763 28.851L84.3243 29.126C83.5983 29.236 82.9383 29.335 82.3443 29.423C81.7503 29.511 81.2113 29.599 80.7273 29.687C80.2506 29.7677 79.8253 29.8667 79.4513 29.984C79.1359 30.094 78.8536 30.226 78.6043 30.38C78.3623 30.534 78.1679 30.721 78.0213 30.941C77.8819 31.161 77.8123 31.4287 77.8123 31.744C77.8123 32.052 77.8893 32.338 78.0433 32.602C78.1973 32.8587 78.4319 33.064 78.7473 33.218C79.0626 33.372 79.4659 33.449 79.9573 33.449ZM88.9407 35V18.83H91.2397V35H88.9407ZM101.341 35C100.593 35.1467 99.8596 35.209 99.1409 35.187C98.4223 35.165 97.7806 35.0257 97.2159 34.769C96.6513 34.5123 96.2259 34.109 95.9399 33.559C95.6833 33.0677 95.5439 32.569 95.5219 32.063C95.5073 31.5497 95.4999 30.9703 95.4999 30.325V19.82H97.8099V30.215C97.8099 30.6917 97.8136 31.106 97.8209 31.458C97.8356 31.81 97.9126 32.107 98.0519 32.349C98.3159 32.8037 98.7339 33.064 99.3059 33.13C99.8853 33.1887 100.564 33.163 101.341 33.053V35ZM93.2229 24.968V23.12H101.341V24.968H93.2229ZM112.184 35V29.159C112.184 28.697 112.143 28.224 112.063 27.74C111.989 27.2487 111.843 26.794 111.623 26.376C111.41 25.958 111.106 25.6207 110.71 25.364C110.321 25.1073 109.811 24.979 109.181 24.979C108.77 24.979 108.381 25.0487 108.015 25.188C107.648 25.32 107.325 25.5363 107.047 25.837C106.775 26.1377 106.559 26.5337 106.398 27.025C106.244 27.5163 106.167 28.114 106.167 28.818L104.737 28.279C104.737 27.201 104.938 26.2513 105.342 25.43C105.745 24.6013 106.324 23.956 107.08 23.494C107.835 23.032 108.748 22.801 109.819 22.801C110.64 22.801 111.329 22.933 111.887 23.197C112.444 23.461 112.895 23.8093 113.24 24.242C113.592 24.6673 113.859 25.133 114.043 25.639C114.226 26.145 114.351 26.64 114.417 27.124C114.483 27.608 114.516 28.0333 114.516 28.4V35H112.184ZM103.835 35V19.16H105.892V27.707H106.167V35H103.835Z" fill="#2444C4"/>
<path d="M122.005 35V19.16H124.304V35H122.005ZM135.945 35V29.159C135.945 28.697 135.905 28.224 135.824 27.74C135.751 27.2487 135.604 26.794 135.384 26.376C135.172 25.958 134.867 25.6207 134.471 25.364C134.083 25.1073 133.573 24.979 132.942 24.979C132.532 24.979 132.143 25.0487 131.776 25.188C131.41 25.32 131.087 25.5363 130.808 25.837C130.537 26.1377 130.321 26.5337 130.159 27.025C130.005 27.5163 129.928 28.114 129.928 28.818L128.498 28.279C128.498 27.201 128.7 26.2513 129.103 25.43C129.507 24.6013 130.086 23.956 130.841 23.494C131.597 23.032 132.51 22.801 133.58 22.801C134.402 22.801 135.091 22.933 135.648 23.197C136.206 23.461 136.657 23.8093 137.001 24.242C137.353 24.6673 137.621 25.133 137.804 25.639C137.988 26.145 138.112 26.64 138.178 27.124C138.244 27.608 138.277 28.0333 138.277 28.4V35H135.945ZM127.596 35V23.12H129.653V26.552H129.928V35H127.596ZM145.686 35.319C144.241 35.319 143.064 35 142.155 34.362C141.245 33.724 140.688 32.8257 140.483 31.667L142.837 31.304C142.983 31.92 143.321 32.4077 143.849 32.767C144.384 33.119 145.048 33.295 145.84 33.295C146.558 33.295 147.119 33.1483 147.523 32.855C147.933 32.5617 148.139 32.1583 148.139 31.645C148.139 31.3443 148.065 31.1023 147.919 30.919C147.779 30.7283 147.482 30.5487 147.028 30.38C146.573 30.2113 145.88 30.0023 144.949 29.753C143.929 29.489 143.119 29.2067 142.518 28.906C141.924 28.598 141.498 28.2423 141.242 27.839C140.992 27.4283 140.868 26.9333 140.868 26.354C140.868 25.6353 141.058 25.0083 141.44 24.473C141.821 23.9377 142.356 23.5233 143.046 23.23C143.742 22.9367 144.556 22.79 145.488 22.79C146.397 22.79 147.207 22.933 147.919 23.219C148.63 23.505 149.206 23.912 149.646 24.44C150.086 24.9607 150.35 25.573 150.438 26.277L148.084 26.706C148.003 26.134 147.735 25.683 147.281 25.353C146.826 25.023 146.236 24.8433 145.51 24.814C144.813 24.7847 144.248 24.902 143.816 25.166C143.383 25.4227 143.167 25.7783 143.167 26.233C143.167 26.497 143.247 26.7207 143.409 26.904C143.577 27.0873 143.9 27.2633 144.377 27.432C144.853 27.6007 145.557 27.8023 146.489 28.037C147.486 28.2937 148.278 28.5797 148.865 28.895C149.451 29.203 149.869 29.5733 150.119 30.006C150.375 30.4313 150.504 30.9483 150.504 31.557C150.504 32.7303 150.075 33.6507 149.217 34.318C148.366 34.9853 147.189 35.319 145.686 35.319ZM157.414 35.319C156.593 35.319 155.904 35.187 155.346 34.923C154.789 34.659 154.334 34.3143 153.982 33.889C153.638 33.4563 153.374 32.987 153.19 32.481C153.007 31.975 152.882 31.48 152.816 30.996C152.75 30.512 152.717 30.0867 152.717 29.72V23.12H155.049V28.961C155.049 29.423 155.086 29.8997 155.159 30.391C155.24 30.875 155.387 31.326 155.599 31.744C155.819 32.162 156.124 32.4993 156.512 32.756C156.908 33.0127 157.422 33.141 158.052 33.141C158.463 33.141 158.852 33.075 159.218 32.943C159.585 32.8037 159.904 32.5837 160.175 32.283C160.454 31.9823 160.67 31.5863 160.824 31.095C160.986 30.6037 161.066 30.006 161.066 29.302L162.496 29.841C162.496 30.919 162.295 31.8723 161.891 32.701C161.488 33.5223 160.909 34.164 160.153 34.626C159.398 35.088 158.485 35.319 157.414 35.319ZM161.341 35V31.568H161.066V23.12H163.387V35H161.341ZM166.473 35V23.12H168.519V26.002L168.233 25.628C168.379 25.2467 168.57 24.8983 168.805 24.583C169.039 24.2603 169.311 23.9963 169.619 23.791C169.919 23.571 170.253 23.4023 170.62 23.285C170.994 23.1603 171.375 23.087 171.764 23.065C172.152 23.0357 172.526 23.054 172.886 23.12V25.276C172.497 25.1733 172.064 25.144 171.588 25.188C171.118 25.232 170.686 25.3823 170.29 25.639C169.916 25.881 169.619 26.1743 169.399 26.519C169.186 26.8637 169.032 27.2487 168.937 27.674C168.841 28.092 168.794 28.5357 168.794 29.005V35H166.473ZM177.992 35.33C177.112 35.33 176.375 35.1687 175.781 34.846C175.187 34.516 174.736 34.0833 174.428 33.548C174.127 33.0053 173.977 32.4113 173.977 31.766C173.977 31.1647 174.083 30.6367 174.296 30.182C174.508 29.7273 174.824 29.3423 175.242 29.027C175.66 28.7043 176.173 28.444 176.782 28.246C177.31 28.092 177.907 27.9563 178.575 27.839C179.242 27.7217 179.942 27.6117 180.676 27.509C181.416 27.4063 182.15 27.3037 182.876 27.201L182.04 27.663C182.054 26.7317 181.856 26.0423 181.446 25.595C181.042 25.1403 180.346 24.913 179.356 24.913C178.732 24.913 178.16 25.0597 177.64 25.353C177.119 25.639 176.756 26.1157 176.551 26.783L174.406 26.123C174.699 25.1037 175.256 24.2933 176.078 23.692C176.906 23.0907 178.006 22.79 179.378 22.79C180.441 22.79 181.365 22.9733 182.15 23.34C182.942 23.6993 183.521 24.2713 183.888 25.056C184.078 25.4447 184.196 25.8553 184.24 26.288C184.284 26.7207 184.306 27.1863 184.306 27.685V35H182.271V32.283L182.667 32.635C182.175 33.5443 181.548 34.2227 180.786 34.67C180.03 35.11 179.099 35.33 177.992 35.33ZM178.399 33.449C179.051 33.449 179.612 33.3353 180.082 33.108C180.551 32.8733 180.929 32.5763 181.215 32.217C181.501 31.8577 181.688 31.4837 181.776 31.095C181.9 30.743 181.97 30.347 181.985 29.907C182.007 29.467 182.018 29.115 182.018 28.851L182.766 29.126C182.04 29.236 181.38 29.335 180.786 29.423C180.192 29.511 179.653 29.599 179.169 29.687C178.692 29.7677 178.267 29.8667 177.893 29.984C177.577 30.094 177.295 30.226 177.046 30.38C176.804 30.534 176.609 30.721 176.463 30.941C176.323 31.161 176.254 31.4287 176.254 31.744C176.254 32.052 176.331 32.338 176.485 32.602C176.639 32.8587 176.873 33.064 177.189 33.218C177.504 33.372 177.907 33.449 178.399 33.449ZM195.5 35V29.159C195.5 28.697 195.46 28.224 195.379 27.74C195.306 27.2487 195.159 26.794 194.939 26.376C194.726 25.958 194.422 25.6207 194.026 25.364C193.637 25.1073 193.128 24.979 192.497 24.979C192.086 24.979 191.698 25.0487 191.331 25.188C190.964 25.32 190.642 25.5363 190.363 25.837C190.092 26.1377 189.875 26.5337 189.714 27.025C189.56 27.5163 189.483 28.114 189.483 28.818L188.053 28.279C188.053 27.201 188.255 26.2513 188.658 25.43C189.061 24.6013 189.641 23.956 190.396 23.494C191.151 23.032 192.064 22.801 193.135 22.801C193.956 22.801 194.646 22.933 195.203 23.197C195.76 23.461 196.211 23.8093 196.556 24.242C196.908 24.6673 197.176 25.133 197.359 25.639C197.542 26.145 197.667 26.64 197.733 27.124C197.799 27.608 197.832 28.0333 197.832 28.4V35H195.5ZM187.151 35V23.12H189.208V26.552H189.483V35H187.151ZM205.629 35.33C204.412 35.33 203.378 35.0587 202.527 34.516C201.676 33.9733 201.024 33.229 200.569 32.283C200.122 31.337 199.894 30.2627 199.887 29.06C199.894 27.8353 200.129 26.7537 200.591 25.815C201.053 24.869 201.713 24.1283 202.571 23.593C203.429 23.0577 204.459 22.79 205.662 22.79C206.96 22.79 208.067 23.1127 208.984 23.758C209.908 24.4033 210.517 25.287 210.81 26.409L208.522 27.069C208.295 26.4017 207.921 25.8847 207.4 25.518C206.887 25.144 206.296 24.957 205.629 24.957C204.874 24.957 204.254 25.1367 203.77 25.496C203.286 25.848 202.927 26.332 202.692 26.948C202.457 27.564 202.336 28.268 202.329 29.06C202.336 30.2847 202.615 31.2747 203.165 32.03C203.722 32.7853 204.544 33.163 205.629 33.163C206.37 33.163 206.967 32.9943 207.422 32.657C207.884 32.3123 208.236 31.821 208.478 31.183L210.81 31.733C210.421 32.8917 209.78 33.7827 208.885 34.406C207.99 35.022 206.905 35.33 205.629 35.33ZM217.997 35.33C216.817 35.33 215.779 35.0733 214.884 34.56C213.997 34.0393 213.304 33.317 212.805 32.393C212.314 31.4617 212.068 30.3837 212.068 29.159C212.068 27.861 212.31 26.7353 212.794 25.782C213.286 24.8287 213.968 24.0917 214.84 23.571C215.713 23.0503 216.729 22.79 217.887 22.79C219.097 22.79 220.128 23.0723 220.978 23.637C221.829 24.1943 222.463 24.99 222.881 26.024C223.307 27.058 223.475 28.2863 223.387 29.709H221.088V28.873C221.074 27.4943 220.81 26.475 220.296 25.815C219.79 25.155 219.017 24.825 217.975 24.825C216.824 24.825 215.959 25.188 215.379 25.914C214.8 26.64 214.51 27.6887 214.51 29.06C214.51 30.3653 214.8 31.3773 215.379 32.096C215.959 32.8073 216.795 33.163 217.887 33.163C218.606 33.163 219.226 33.0017 219.746 32.679C220.274 32.349 220.685 31.8797 220.978 31.271L223.233 31.986C222.771 33.0493 222.071 33.8743 221.132 34.461C220.194 35.0403 219.149 35.33 217.997 35.33ZM213.762 29.709V27.916H222.243V29.709H213.762Z" fill="#051A6F"/>
</svg>
